<mxfile host="app.diagrams.net" modified="2023-09-21T09:26:53.289Z" agent="Mozilla/5.0 (Windows NT 10.0; Win64; x64; rv:104.0) Gecko/20100101 Firefox/104.0" version="21.8.0" etag="ujlh0GJlnCrCHKgifS4i" type="github">
  <diagram name="Page-1" id="Nw4xdQp2jB5KrkaAadSe">
    <mxGraphModel>
      <root>
        <mxCell id="0" />
        <mxCell id="1" parent="0" />
      </root>
    </mxGraphModel>
  </diagram>
</mxfile>
